# xmcd CD database file
#
# Track frame offsets:
#	150
#	11105
#	21597
#	32582
#	44705
#	56840
#	67550
#	76740
#	85912
#	99580
#	113022
#	124635
#	133835
#	144310
#	158090
#
# Disc length: 2338 seconds
#
# Revision: 3
# Processed by: cddbd v1.5.2PL0 Copyright (c) Steve Scherf et al.
# Submitted via: CDex 1.51
#
DISCID=c109200f
DTITLE=Guitar Slim - Atco Sessions
DYEAR=1987
DGENRE=Blues
TTITLE0=Down Through The Years
TTITLE1=Oh Yeah!
TTITLE2=If I Should Lose You
TTITLE3=It Hurts To Love Someone
TTITLE4=I Won't Mind At All
TTITLE5=Hello,How Ya Been? Goodbye
TTITLE6=When There's No Way Out
TTITLE7=If I Had May Life To Live Over
TTITLE8=Guitar Slim Boogie-2
TTITLE9=Strange Things Happening
TTITLE10=Along About Midnight
TTITLE11=Plenty Good Room
TTITLE12=The Cackle
TTITLE13=My Time Is Expensive
TTITLE14=Guitar Slim Boogie-3
EXTD=YEAR: 1987
EXTT0=
EXTT1=
EXTT2=
EXTT3=
EXTT4=
EXTT5=
EXTT6=
EXTT7=
EXTT8=
EXTT9=
EXTT10=
EXTT11=
EXTT12=
EXTT13=
EXTT14=
PLAYORDER=
